<svg width="13" height="10" viewBox="0 0 13 10" fill="none" xmlns="http://www.w3.org/2000/svg">
<path fill-rule="evenodd" clip-rule="evenodd" d="M7.02577 9.768C6.82215 9.59822 6.69429 9.35453 6.67028 9.0905C6.64628 8.82647 6.72811 8.56372 6.89777 8.36L8.86484 6L0.999999 6C0.734782 6 0.48043 5.89464 0.292894 5.70711C0.105357 5.51957 -7.12893e-07 5.26522 -7.013e-07 5C-6.89707e-07 4.73478 0.105357 4.48043 0.292894 4.29289C0.48043 4.10536 0.734783 4 0.999999 4L8.86486 4L6.89777 1.63996C6.72811 1.43625 6.64628 1.17349 6.67028 0.909465C6.69429 0.645437 6.82215 0.401746 7.02577 0.231964C7.12667 0.1478 7.24316 0.0843456 7.3686 0.0452268C7.49403 0.00610757 7.62594 -0.00790857 7.7568 0.00397898C7.88765 0.0158661 8.01488 0.0534241 8.13121 0.114506C8.24754 0.175588 8.35069 0.258996 8.43477 0.359964L11.626 4.18985C11.6359 4.19749 11.6457 4.20533 11.6553 4.21335C11.7578 4.29871 11.8421 4.4037 11.9033 4.52213C11.9646 4.64057 12.0016 4.77006 12.012 4.90299C12.0146 4.93532 12.0156 4.96769 12.015 4.99999C12.0156 5.03229 12.0146 5.06466 12.012 5.09698C12.0016 5.22991 11.9646 5.3594 11.9033 5.47784C11.8421 5.59627 11.7578 5.70126 11.6553 5.78662C11.6457 5.79464 11.6359 5.80248 11.626 5.81012L8.43477 9.64C8.35069 9.74097 8.24754 9.82438 8.13121 9.88546C8.01488 9.94654 7.88765 9.9841 7.7568 9.99599C7.62594 10.0079 7.49403 9.99386 7.3686 9.95474C7.24316 9.91562 7.12667 9.85217 7.02577 9.768Z" fill="white"/>
</svg>
