<svg width="14" height="23" viewBox="0 0 14 23" fill="none" xmlns="http://www.w3.org/2000/svg">
<path fill-rule="evenodd" clip-rule="evenodd" d="M8.58824 0.75C7.34977 0.75 6.16336 1.25476 5.28963 2.15109C4.41611 3.0472 3.92647 4.26125 3.92647 5.52586V14.7586C3.92647 15.5911 4.24878 16.3907 4.82444 16.9813C5.40032 17.5721 6.18276 17.9052 7 17.9052C7.81724 17.9052 8.59968 17.5721 9.17556 16.9813C9.75122 16.3907 10.0735 15.5911 10.0735 14.7586V7.15517C10.0735 6.62323 9.65155 6.18103 9.11765 6.18103C8.58375 6.18103 8.16176 6.62323 8.16176 7.15517V14.7586C8.16176 15.0785 8.03785 15.3839 7.81925 15.6082C7.60085 15.8322 7.30603 15.9569 7 15.9569C6.69397 15.9569 6.39915 15.8322 6.18075 15.6082C5.96215 15.3839 5.83824 15.0785 5.83824 14.7586V5.52586C5.83824 4.77391 6.12948 4.054 6.64593 3.52419C7.16218 2.99459 7.86098 2.69828 8.58824 2.69828C9.31549 2.69828 10.0143 2.99459 10.5305 3.52419C11.047 4.054 11.3382 4.77391 11.3382 5.52586V15.8448C11.3382 17.0289 10.8797 18.1632 10.0654 18.9986C9.25126 19.8338 8.14848 20.3017 7 20.3017C5.85152 20.3017 4.74874 19.8338 3.93465 18.9986C3.12034 18.1632 2.66176 17.0289 2.66176 15.8448V7.15517C2.66176 6.62323 2.23978 6.18103 1.70588 6.18103C1.17198 6.18103 0.75 6.62323 0.75 7.15517V15.8448C0.75 17.5416 1.40697 19.17 2.57834 20.3717C3.74992 21.5736 5.34031 22.25 7 22.25C8.65969 22.25 10.2501 21.5736 11.4217 20.3717C12.593 19.17 13.25 17.5416 13.25 15.8448V5.52586C13.25 4.26125 12.7604 3.0472 11.8868 2.15109C11.0131 1.25476 9.8267 0.75 8.58824 0.75Z" fill="white"/>
</svg>
