<svg width="21" height="22" viewBox="0 0 21 22" fill="none" xmlns="http://www.w3.org/2000/svg">
<path d="M8.85938 4.76562V5.09375H12.1406V4.76562C12.1406 4.3305 11.9678 3.9132 11.6601 3.60553C11.3524 3.29785 10.9351 3.125 10.5 3.125C10.0649 3.125 9.64758 3.29785 9.3399 3.60553C9.03223 3.9132 8.85938 4.3305 8.85938 4.76562ZM7.54688 5.09375V4.76562C7.54688 3.98241 7.85801 3.23127 8.41183 2.67745C8.96564 2.12363 9.71678 1.8125 10.5 1.8125C11.2832 1.8125 12.0344 2.12363 12.5882 2.67745C13.142 3.23127 13.4531 3.98241 13.4531 4.76562V5.09375H18.375C18.549 5.09375 18.716 5.16289 18.839 5.28596C18.9621 5.40903 19.0312 5.57595 19.0312 5.75C19.0312 5.92405 18.9621 6.09097 18.839 6.21404C18.716 6.33711 18.549 6.40625 18.375 6.40625H17.3854L16.1438 17.279C16.0522 18.0797 15.6691 18.8188 15.0676 19.3552C14.4661 19.8916 13.6882 20.1879 12.8822 20.1875H8.11781C7.31185 20.1879 6.53393 19.8916 5.9324 19.3552C5.33087 18.8188 4.94781 18.0797 4.85625 17.279L3.61462 6.40625H2.625C2.45095 6.40625 2.28403 6.33711 2.16096 6.21404C2.03789 6.09097 1.96875 5.92405 1.96875 5.75C1.96875 5.57595 2.03789 5.40903 2.16096 5.28596C2.28403 5.16289 2.45095 5.09375 2.625 5.09375H7.54688ZM6.16087 17.1294C6.21566 17.6097 6.44526 18.0531 6.80592 18.375C7.16657 18.6969 7.63307 18.8749 8.1165 18.875H12.8828C13.3663 18.8749 13.8328 18.6969 14.1934 18.375C14.5541 18.0531 14.7837 17.6097 14.8385 17.1294L16.065 6.40625H4.93566L6.16087 17.1294ZM8.53125 8.70312C8.7053 8.70312 8.87222 8.77227 8.99529 8.89534C9.11836 9.01841 9.1875 9.18533 9.1875 9.35938V15.9219C9.1875 16.0959 9.11836 16.2628 8.99529 16.3859C8.87222 16.509 8.7053 16.5781 8.53125 16.5781C8.3572 16.5781 8.19028 16.509 8.06721 16.3859C7.94414 16.2628 7.875 16.0959 7.875 15.9219V9.35938C7.875 9.18533 7.94414 9.01841 8.06721 8.89534C8.19028 8.77227 8.3572 8.70312 8.53125 8.70312ZM13.125 9.35938C13.125 9.18533 13.0559 9.01841 12.9328 8.89534C12.8097 8.77227 12.6428 8.70312 12.4688 8.70312C12.2947 8.70312 12.1278 8.77227 12.0047 8.89534C11.8816 9.01841 11.8125 9.18533 11.8125 9.35938V15.9219C11.8125 16.0959 11.8816 16.2628 12.0047 16.3859C12.1278 16.509 12.2947 16.5781 12.4688 16.5781C12.6428 16.5781 12.8097 16.509 12.9328 16.3859C13.0559 16.2628 13.125 16.0959 13.125 15.9219V9.35938Z" fill="white"/>
</svg>
