<svg width="24" height="24" viewBox="0 0 24 24" fill="none" xmlns="http://www.w3.org/2000/svg">
<rect x="24" width="24" height="24" rx="12" transform="rotate(90 24 0)" fill="#544417"/>
<path fill-rule="evenodd" clip-rule="evenodd" d="M16.4015 12.9471C16.4792 13.0402 16.5378 13.1478 16.5739 13.2636C16.61 13.3793 16.6229 13.5011 16.6119 13.6219C16.601 13.7427 16.5663 13.8601 16.5099 13.9675C16.4535 14.0749 16.3765 14.1701 16.2833 14.2477L12.591 17.3243C12.4984 17.4054 12.3905 17.4671 12.2736 17.5058C12.1568 17.5445 12.0334 17.5595 11.9107 17.5498C11.788 17.5401 11.6685 17.506 11.5591 17.4495C11.4498 17.3929 11.3529 17.3151 11.2741 17.2205C11.1953 17.126 11.1362 17.0166 11.1003 16.8989C11.0644 16.7812 11.0524 16.6574 11.065 16.535C11.0776 16.4126 11.1146 16.2939 11.1738 16.1859C11.2329 16.078 11.3131 15.983 11.4095 15.9065L15.1018 12.829C15.2898 12.6723 15.5324 12.5968 15.7761 12.619C16.0198 12.6411 16.2448 12.7591 16.4015 12.9471Z" fill="#FFBE1A"/>
<path fill-rule="evenodd" clip-rule="evenodd" d="M7.5991 12.9471C7.75583 12.7592 7.98077 12.6411 8.22449 12.619C8.46821 12.5968 8.71075 12.6723 8.8988 12.829L12.5911 15.9065C12.6875 15.983 12.7677 16.078 12.8268 16.1859C12.886 16.2939 12.923 16.4126 12.9356 16.535C12.9482 16.6574 12.9362 16.7812 12.9003 16.8989C12.8644 17.0166 12.8053 17.126 12.7265 17.2205C12.6477 17.3151 12.5508 17.3929 12.4414 17.4495C12.3321 17.506 12.2126 17.5401 12.0899 17.5498C11.9672 17.5595 11.8438 17.5445 11.7269 17.5058C11.6101 17.4671 11.5022 17.4054 11.4096 17.3243L7.71726 14.2477C7.62406 14.1701 7.54706 14.0749 7.49068 13.9675C7.4343 13.8601 7.39963 13.7427 7.38866 13.6219C7.37768 13.5011 7.39062 13.3793 7.42673 13.2636C7.46284 13.1478 7.52141 13.0402 7.5991 12.9471Z" fill="#FFBE1A"/>
<path fill-rule="evenodd" clip-rule="evenodd" d="M12.0003 15.6923C11.7554 15.6923 11.5207 15.5951 11.3475 15.422C11.1744 15.2488 11.0772 15.0141 11.0772 14.7692L11.0772 7.38463C11.0772 7.13981 11.1744 6.90503 11.3475 6.73192C11.5207 6.55881 11.7554 6.46155 12.0003 6.46155C12.2451 6.46155 12.4799 6.55881 12.653 6.73192C12.8261 6.90503 12.9233 7.13981 12.9233 7.38463L12.9233 14.7692C12.9233 15.0141 12.8261 15.2488 12.653 15.422C12.4799 15.5951 12.2451 15.6923 12.0003 15.6923Z" fill="#FFBE1A"/>
</svg>
