<svg width="21" height="22" viewBox="0 0 21 22" fill="none" xmlns="http://www.w3.org/2000/svg">
<path fill-rule="evenodd" clip-rule="evenodd" d="M13.2448 3.53616C13.1217 3.41327 12.9549 3.34424 12.781 3.34424C12.6071 3.34424 12.4403 3.41327 12.3173 3.53616L4.27341 11.5792C4.19117 11.6615 4.13228 11.7641 4.10279 11.8767L3.22778 15.2279C3.1989 15.3387 3.19948 15.455 3.22947 15.5655C3.25947 15.6759 3.31782 15.7766 3.39875 15.8576C3.47969 15.9385 3.58038 15.9969 3.69083 16.0268C3.80128 16.0568 3.91766 16.0574 4.02841 16.0285L7.37791 15.1535C7.49085 15.1239 7.59385 15.0647 7.67628 14.982L15.7193 6.93904C15.8422 6.81599 15.9112 6.64919 15.9112 6.47529C15.9112 6.30138 15.8422 6.13458 15.7193 6.01154L13.2448 3.53616ZM5.32691 12.3815L12.781 4.92829L14.3272 6.47441L6.87391 13.9285L4.78003 14.4754L5.32691 12.3815Z" fill="white"/>
<path d="M3.5 17.3438C3.32595 17.3438 3.15903 17.4129 3.03596 17.536C2.91289 17.659 2.84375 17.826 2.84375 18C2.84375 18.174 2.91289 18.341 3.03596 18.464C3.15903 18.5871 3.32595 18.6562 3.5 18.6562H16.625C16.799 18.6562 16.966 18.5871 17.089 18.464C17.2121 18.341 17.2812 18.174 17.2812 18C17.2812 17.826 17.2121 17.659 17.089 17.536C16.966 17.4129 16.799 17.3438 16.625 17.3438H3.5Z" fill="white"/>
</svg>
