<svg width="20" height="20" viewBox="0 0 20 20" fill="none" xmlns="http://www.w3.org/2000/svg">
<path fill-rule="evenodd" clip-rule="evenodd" d="M10 7C10.5304 7 11.0391 7.21071 11.4142 7.58579C11.7893 7.96086 12 8.46957 12 9V16C12 16.5304 11.7893 17.0391 11.4142 17.4142C11.0391 17.7893 10.5304 18 10 18C9.46957 18 8.96086 17.7893 8.58579 17.4142C8.21071 17.0391 8 16.5304 8 16V9C8 8.46957 8.21071 7.96086 8.58579 7.58579C8.96086 7.21071 9.46957 7 10 7Z" fill="white"/>
<path d="M12 4C12 4.53043 11.7893 5.03914 11.4142 5.41421C11.0391 5.78929 10.5304 6 10 6C9.46957 6 8.96086 5.78929 8.58579 5.41421C8.21071 5.03914 8 4.53043 8 4C8 3.46957 8.21071 2.96086 8.58579 2.58579C8.96086 2.21071 9.46957 2 10 2C10.5304 2 11.0391 2.21071 11.4142 2.58579C11.7893 2.96086 12 3.46957 12 4Z" fill="white"/>
</svg>
