<svg width="19" height="19" viewBox="0 0 19 19" fill="none" xmlns="http://www.w3.org/2000/svg">
<path d="M9.49984 2.375C8.629 2.375 7.9165 3.0875 7.9165 3.95833C7.9165 4.82917 8.629 5.54167 9.49984 5.54167C10.3707 5.54167 11.0832 4.82917 11.0832 3.95833C11.0832 3.0875 10.3707 2.375 9.49984 2.375ZM9.49984 13.4583C8.629 13.4583 7.9165 14.1708 7.9165 15.0417C7.9165 15.9125 8.629 16.625 9.49984 16.625C10.3707 16.625 11.0832 15.9125 11.0832 15.0417C11.0832 14.1708 10.3707 13.4583 9.49984 13.4583ZM9.49984 7.91667C8.629 7.91667 7.9165 8.62917 7.9165 9.5C7.9165 10.3708 8.629 11.0833 9.49984 11.0833C10.3707 11.0833 11.0832 10.3708 11.0832 9.5C11.0832 8.62917 10.3707 7.91667 9.49984 7.91667Z" fill="white"/>
</svg>
