<svg width="24" height="24" viewBox="0 0 24 24" fill="none" xmlns="http://www.w3.org/2000/svg">
<path fill-rule="evenodd" clip-rule="evenodd" d="M12 -5.24537e-07C5.37258 -8.1423e-07 -2.34843e-07 5.37258 -5.24537e-07 12C-8.1423e-07 18.6274 5.37258 24 12 24C18.6274 24 24 18.6274 24 12C24 5.37258 18.6274 -2.34843e-07 12 -5.24537e-07ZM17.864 12.5796C17.7745 12.76 17.6444 12.9178 17.4836 13.0408C15.4022 14.6327 13.0783 15.8877 10.5988 16.759L10.1454 16.9183C9.27893 17.2224 8.36382 16.643 8.24579 15.758C7.91807 13.2632 7.91807 10.7368 8.24579 8.24197C8.36313 7.35704 9.27893 6.77761 10.1454 7.08174L10.5988 7.24101C13.0783 8.11226 15.4022 9.3673 17.4836 10.9592C17.6444 11.0822 17.7744 11.24 17.864 11.4204C17.9535 11.6008 18 11.7991 18 12C18 12.2009 17.9535 12.3992 17.864 12.5796Z" fill="#46494D"/>
</svg>
