<svg width="24" height="25" viewBox="0 0 24 25" fill="none" xmlns="http://www.w3.org/2000/svg">
<path fill-rule="evenodd" clip-rule="evenodd" d="M11.9996 14.3043L17.3026 19.6073C17.584 19.8887 17.9657 20.0468 18.3636 20.0468C18.7616 20.0468 19.1432 19.8887 19.4246 19.6073C19.706 19.3259 19.8641 18.9442 19.8641 18.5463C19.8641 18.1483 19.706 17.7667 19.4246 17.4853L14.1196 12.1823L19.4236 6.87928C19.5629 6.73995 19.6733 6.57455 19.7487 6.39253C19.824 6.21051 19.8628 6.01543 19.8627 5.81843C19.8627 5.62143 19.8238 5.42637 19.7484 5.24438C19.673 5.0624 19.5624 4.89705 19.4231 4.75778C19.2838 4.61852 19.1184 4.50806 18.9364 4.43271C18.7543 4.35737 18.5592 4.31861 18.3623 4.31866C18.1653 4.3187 17.9702 4.35755 17.7882 4.43298C17.6062 4.50841 17.4409 4.61895 17.3016 4.75829L11.9996 10.0613L6.6966 4.75829C6.5583 4.61496 6.39284 4.50061 6.20987 4.42191C6.0269 4.34321 5.83009 4.30174 5.63092 4.29991C5.43176 4.29809 5.23422 4.33595 5.04984 4.41128C4.86546 4.48662 4.69793 4.59792 4.55703 4.73869C4.41612 4.87946 4.30466 5.04689 4.22916 5.2312C4.15365 5.4155 4.1156 5.613 4.11724 5.81217C4.11887 6.01134 4.16016 6.20819 4.23869 6.39123C4.31721 6.57428 4.43141 6.73985 4.5746 6.87828L9.8796 12.1823L4.5756 17.4863C4.43241 17.6247 4.31821 17.7903 4.23969 17.9733C4.16116 18.1564 4.11987 18.3532 4.11824 18.5524C4.1166 18.7516 4.15465 18.9491 4.23016 19.1334C4.30566 19.3177 4.41712 19.4851 4.55803 19.6259C4.69893 19.7667 4.86646 19.878 5.05084 19.9533C5.23522 20.0286 5.43276 20.0665 5.63192 20.0647C5.83109 20.0628 6.0279 20.0214 6.21087 19.9427C6.39384 19.864 6.5593 19.7496 6.6976 19.6063L11.9996 14.3043Z" fill="white"/>
</svg>
