<svg width="10" height="12" viewBox="0 0 10 12" fill="none" xmlns="http://www.w3.org/2000/svg">
<path fill-rule="evenodd" clip-rule="evenodd" d="M0.598999 5.41749C0.521309 5.32435 0.462736 5.21682 0.426626 5.10103C0.390516 4.98525 0.377578 4.86348 0.388551 4.74269C0.399524 4.62191 0.434193 4.50447 0.490576 4.39708C0.54696 4.2897 0.623952 4.19448 0.717153 4.11687L4.25212 1.17136C4.25924 1.16213 4.26653 1.15303 4.27401 1.14406C4.35281 1.0495 4.44972 0.971659 4.55904 0.91511C4.66837 0.85856 4.7879 0.824446 4.9106 0.814774C4.94046 0.812421 4.97036 0.811526 5.00019 0.812078C5.03003 0.811526 5.05993 0.812421 5.08978 0.814774C5.21249 0.824446 5.33202 0.85856 5.44134 0.91511C5.55067 0.971659 5.64758 1.0495 5.72638 1.14406C5.73385 1.15303 5.74115 1.16213 5.74826 1.17136L9.28323 4.11687C9.37643 4.19448 9.45342 4.2897 9.50981 4.39708C9.56619 4.50447 9.60086 4.62191 9.61183 4.74269C9.62281 4.86348 9.60987 4.98525 9.57376 5.10103C9.53765 5.21682 9.47907 5.32435 9.40138 5.41749C9.24466 5.60544 9.01972 5.72347 8.776 5.74563C8.53228 5.76779 8.28974 5.69226 8.10169 5.53564L5.9233 3.71995L5.9233 10.9799C5.9233 11.2248 5.82605 11.4596 5.65294 11.6327C5.47983 11.8058 5.24504 11.903 5.00023 11.903C4.75541 11.903 4.52062 11.8058 4.34751 11.6327C4.1744 11.4596 4.07715 11.2248 4.07715 10.9799L4.07715 3.7199L1.89869 5.53564C1.71064 5.69226 1.4681 5.76779 1.22438 5.74563C0.980666 5.72347 0.755721 5.60544 0.598999 5.41749Z" fill="#333333"/>
</svg>
