<svg width="48" height="48" viewBox="0 0 48 48" fill="none" xmlns="http://www.w3.org/2000/svg">
<path d="M22.7069 20.293C22.5183 20.1109 22.2657 20.0101 22.0035 20.0124C21.7413 20.0146 21.4905 20.1198 21.3051 20.3052C21.1197 20.4906 21.0145 20.7414 21.0122 21.0036C21.01 21.2658 21.1108 21.5184 21.2929 21.707L24.5859 25L21.2929 28.293C21.1108 28.4816 21.01 28.7342 21.0122 28.9964C21.0145 29.2586 21.1197 29.5095 21.3051 29.6949C21.4905 29.8803 21.7413 29.9854 22.0035 29.9877C22.2657 29.99 22.5183 29.8892 22.7069 29.707L25.9999 26.414L29.2929 29.707C29.4815 29.8892 29.7341 29.99 29.9963 29.9877C30.2585 29.9854 30.5093 29.8803 30.6947 29.6949C30.8801 29.5095 30.9853 29.2586 30.9876 28.9964C30.9899 28.7342 30.8891 28.4816 30.7069 28.293L27.4139 25L30.7069 21.707C30.8891 21.5184 30.9899 21.2658 30.9876 21.0036C30.9853 20.7414 30.8801 20.4906 30.6947 20.3052C30.5093 20.1198 30.2585 20.0146 29.9963 20.0124C29.7341 20.0101 29.4815 20.1109 29.2929 20.293L25.9999 23.586L22.7069 20.293Z" fill="black"/>
<path fill-rule="evenodd" clip-rule="evenodd" d="M38 15V36C38 36.7956 37.6839 37.5587 37.1213 38.1213C36.5587 38.6839 35.7956 39 35 39H17C16.2044 39 15.4413 38.6839 14.8787 38.1213C14.3161 37.5587 14 36.7956 14 36V8C14 7.20435 14.3161 6.44129 14.8787 5.87868C15.4413 5.31607 16.2044 5 17 5H28L38 15ZM28 16C27.7348 16 27.4804 15.8946 27.2929 15.7071C27.1054 15.5196 27 15.2652 27 15V7H17C16.7348 7 16.4804 7.10536 16.2929 7.29289C16.1054 7.48043 16 7.73478 16 8V36C16 36.2652 16.1054 36.5196 16.2929 36.7071C16.4804 36.8946 16.7348 37 17 37H35C35.2652 37 35.5196 36.8946 35.7071 36.7071C35.8946 36.5196 36 36.2652 36 36V16H28ZM29 8.828L34.172 14H29V8.828Z" fill="black"/>
<path d="M12 11V38C12 38.7956 12.3161 39.5587 12.8787 40.1213C13.4413 40.6839 14.2044 41 15 41H34V43H15C13.6739 43 12.4021 42.4732 11.4645 41.5355C10.5268 40.5979 10 39.3261 10 38V11H12Z" fill="black"/>
</svg>
