<?xml version="1.0" standalone="no"?>
<!DOCTYPE svg PUBLIC "-//W3C//DTD SVG 20010904//EN"
 "http://www.w3.org/TR/2001/REC-SVG-20010904/DTD/svg10.dtd">
<svg version="1.0" xmlns="http://www.w3.org/2000/svg"
 width="700.000000pt" height="700.000000pt" viewBox="0 0 700.000000 700.000000"
 preserveAspectRatio="xMidYMid meet">
<metadata>
Created by potrace 1.14, written by Peter Selinger 2001-2017
</metadata>
<g transform="translate(0.000000,700.000000) scale(0.100000,-0.100000)"
fill="#000000" stroke="none">
<path d="M1302 5029 c-222 -28 -404 -160 -494 -357 -89 -194 -94 -514 -12
-716 72 -178 223 -307 404 -345 154 -33 378 -20 520 31 l65 23 3 164 c2 153 1
163 -15 156 -155 -61 -197 -70 -323 -70 -119 0 -127 1 -172 28 -91 53 -137
153 -145 318 -21 397 172 547 525 408 40 -16 74 -29 76 -29 4 0 116 282 116
293 0 11 -91 47 -170 68 -141 36 -253 45 -378 28z"/>
<path d="M2067 5013 c-4 -3 -7 -321 -7 -705 l0 -698 170 0 170 0 -1 393 c0
215 -4 442 -8 502 -5 61 -7 111 -6 113 1 1 67 -225 146 -503 l143 -505 183 0
c101 0 183 2 183 4 0 15 281 1000 286 1005 4 3 4 -3 -1 -14 -4 -11 -10 -239
-13 -507 l-5 -488 177 0 176 0 0 705 0 705 -252 -2 -253 -3 -138 -480 c-76
-264 -141 -488 -145 -499 -5 -12 -48 119 -135 415 -70 239 -137 464 -148 502
l-20 67 -248 0 c-136 0 -251 -3 -254 -7z"/>
<path d="M4267 5013 c-2 -5 -104 -314 -225 -688 -122 -375 -224 -688 -228
-698 -6 -16 10 -17 205 -17 l210 0 16 58 c9 31 20 71 25 87 5 17 14 49 20 73
l11 42 227 0 228 0 33 -130 34 -130 209 0 209 0 -7 23 c-8 26 -322 981 -400
1220 l-56 167 -253 0 c-140 0 -256 -3 -258 -7z m333 -535 c38 -153 70 -280 70
-283 0 -3 -65 -5 -144 -5 l-144 0 42 163 c24 89 56 220 72 291 15 70 29 124
31 120 1 -5 34 -134 73 -286z"/>
<path d="M5390 4315 l0 -705 190 0 190 0 0 265 0 265 210 0 211 0 -3 153 -3
152 -207 3 -208 2 0 130 0 130 225 0 225 0 0 155 0 155 -415 0 -415 0 0 -705z"/>
<path d="M3035 3358 c-2 -7 -97 -299 -210 -648 -113 -349 -214 -661 -225 -692
l-19 -58 210 0 c159 0 211 3 214 13 2 6 18 65 36 130 l31 117 229 0 c169 0
229 -3 229 -12 0 -6 14 -65 31 -130 l32 -118 209 0 c164 0 209 3 205 13 -5 14
-434 1317 -448 1365 l-11 32 -254 0 c-195 0 -256 -3 -259 -12z m345 -575 c33
-127 60 -236 60 -242 0 -7 -47 -11 -146 -11 -120 0 -145 2 -141 14 10 26 116
452 128 516 l13 65 13 -55 c8 -30 40 -159 73 -287z"/>
<path d="M1230 2660 l0 -700 190 0 190 0 0 285 0 285 220 0 220 0 0 -285 0
-285 190 0 190 0 0 700 0 700 -190 0 -190 0 0 -260 0 -260 -220 0 -220 0 0
260 0 260 -190 0 -190 0 0 -700z"/>
<path d="M4160 2660 l0 -700 170 0 170 0 0 358 c0 196 -5 420 -10 496 -6 77
-9 141 -7 143 3 2 169 -573 279 -964 l9 -33 183 0 182 0 138 493 c76 270 139
493 140 494 1 1 -1 -221 -3 -493 l-3 -494 176 0 176 0 0 700 0 700 -255 0
-254 0 -9 -32 c-109 -393 -277 -956 -283 -946 -4 7 -66 216 -138 463 -73 248
-137 465 -142 483 l-11 32 -254 0 -254 0 0 -700z"/>
</g>
</svg>
