<svg width="315" height="91" viewBox="0 0 315 91" fill="none" xmlns="http://www.w3.org/2000/svg">
<path fill-rule="evenodd" clip-rule="evenodd" d="M55.6401 58.7448C57.2018 58.0686 58.9567 57.7305 60.9047 57.7305C62.4664 57.7305 63.9154 57.9237 65.2517 58.3101C66.604 58.6804 67.8437 59.1231 68.9707 59.6383L70.6129 56.1608C69.2766 55.5007 67.7793 54.9935 66.121 54.6394C64.4628 54.2852 62.7401 54.1081 60.953 54.1081C58.2322 54.1081 55.8172 54.5508 53.7081 55.4363C51.6152 56.3057 49.8442 57.5454 48.3952 59.1553C46.9624 60.7653 45.8676 62.6812 45.1109 64.9029C44.3703 67.1086 44 69.5477 44 72.2203C44 75.9232 44.5957 79.1351 45.7871 81.856C46.9946 84.5768 48.7977 86.6859 51.1966 88.1832C53.6115 89.6643 56.6141 90.4049 60.2044 90.4049C62.1525 90.4049 63.8349 90.2842 65.2517 90.0427C66.6684 89.8173 68.0208 89.4631 69.3088 88.9801V85.406C67.9886 85.8084 66.6282 86.1465 65.2275 86.4202C63.8429 86.6778 62.3618 86.8066 60.784 86.8066C58.0148 86.8066 55.7045 86.2109 53.853 85.0196C52.0177 83.8282 50.6331 82.1458 49.6993 79.9723C48.7816 77.7827 48.3228 75.2068 48.3228 72.2444C48.3228 70.0066 48.6126 67.9941 49.1922 66.207C49.7718 64.4199 50.6009 62.8985 51.6796 61.6427C52.7744 60.3709 54.0945 59.4049 55.6401 58.7448ZM219.761 86.9515C219.069 87.0642 218.393 87.1206 217.733 87.1206C216.461 87.1206 215.439 86.71 214.666 85.889C213.909 85.0679 213.531 83.8282 213.531 82.1699V66.5934H221.283V63.454H213.531V57.32H211.116L209.522 63.0676L205.73 64.6373V66.5934H209.498V82.2907C209.498 84.3675 209.836 85.9936 210.512 87.1689C211.204 88.3442 212.122 89.1814 213.265 89.6804C214.408 90.1634 215.68 90.4049 217.081 90.4049C217.87 90.4049 218.675 90.3325 219.496 90.1876C220.333 90.0427 220.985 89.8656 221.452 89.6563V86.541C221.017 86.702 220.454 86.8388 219.761 86.9515ZM237.005 62.971C239.259 62.971 241.191 63.4701 242.801 64.4682C244.41 65.4664 245.642 66.8671 246.495 68.6703C247.349 70.4573 247.775 72.5503 247.775 74.9492V77.4366H229.494C229.542 80.5438 230.315 82.9105 231.812 84.5366C233.31 86.1626 235.419 86.9757 238.14 86.9757C239.814 86.9757 241.295 86.8227 242.583 86.5168C243.871 86.2109 245.207 85.7602 246.592 85.1645V88.6903C245.256 89.286 243.927 89.7207 242.607 89.9944C241.303 90.2681 239.758 90.4049 237.971 90.4049C235.427 90.4049 233.205 89.8897 231.305 88.8594C229.422 87.8129 227.957 86.2834 226.91 84.2709C225.864 82.2585 225.34 79.7952 225.34 76.8811C225.34 74.0315 225.815 71.5682 226.765 69.4914C227.731 67.3984 229.084 65.7884 230.822 64.6614C232.577 63.5345 234.638 62.971 237.005 62.971ZM236.956 66.2553C234.815 66.2553 233.108 66.9557 231.837 68.3563C230.565 69.757 229.808 71.7131 229.567 74.2247H243.573C243.557 72.6469 243.308 71.2623 242.825 70.071C242.358 68.8635 241.641 67.9297 240.675 67.2696C239.709 66.5934 238.47 66.2553 236.956 66.2553ZM266.611 62.971C267.142 62.971 267.698 63.0032 268.277 63.0676C268.857 63.1159 269.372 63.1883 269.823 63.2849L269.316 67.004C268.881 66.8913 268.398 66.8027 267.867 66.7383C267.335 66.6739 266.836 66.6417 266.369 66.6417C265.307 66.6417 264.301 66.8591 263.351 67.2938C262.417 67.7123 261.596 68.3241 260.888 69.1291C260.179 69.918 259.624 70.8759 259.221 72.0029C258.819 73.1138 258.617 74.3535 258.617 75.722V89.9219H254.584V63.454H257.917L258.352 68.3322H258.521C259.068 67.3501 259.728 66.4566 260.501 65.6516C261.274 64.8305 262.167 64.1785 263.182 63.6955C264.212 63.2125 265.355 62.971 266.611 62.971ZM200.973 62.971C201.504 62.971 202.06 63.0032 202.639 63.0676C203.219 63.1159 203.734 63.1883 204.185 63.2849L203.678 67.004C203.243 66.8913 202.76 66.8027 202.229 66.7383C201.697 66.6739 201.198 66.6417 200.731 66.6417C199.669 66.6417 198.662 66.8591 197.713 67.2938C196.779 67.7123 195.958 68.3241 195.249 69.1291C194.541 69.918 193.986 70.8759 193.583 72.0029C193.181 73.1138 192.979 74.3535 192.979 75.722V89.9219H188.946V63.454H192.279L192.714 68.3322H192.883C193.43 67.3501 194.09 66.4566 194.863 65.6516C195.636 64.8305 196.529 64.1785 197.544 63.6955C198.574 63.2125 199.717 62.971 200.973 62.971ZM177.161 64.4682C175.551 63.4701 173.619 62.971 171.365 62.971C168.999 62.971 166.938 63.5345 165.183 64.6614C163.444 65.7884 162.092 67.3984 161.126 69.4914C160.176 71.5682 159.701 74.0315 159.701 76.8811C159.701 79.7952 160.224 82.2585 161.271 84.2709C162.317 86.2834 163.782 87.8129 165.666 88.8594C167.566 89.8897 169.788 90.4049 172.331 90.4049C174.118 90.4049 175.664 90.2681 176.968 89.9944C178.288 89.7207 179.617 89.286 180.953 88.6903V85.1645C179.568 85.7602 178.232 86.2109 176.944 86.5168C175.656 86.8227 174.175 86.9757 172.5 86.9757C169.78 86.9757 167.671 86.1626 166.173 84.5366C164.676 82.9105 163.903 80.5438 163.855 77.4366H182.136V74.9492C182.136 72.5503 181.71 70.4573 180.856 68.6703C180.003 66.8671 178.771 65.4664 177.161 64.4682ZM166.197 68.3563C167.469 66.9557 169.176 66.2553 171.317 66.2553C172.831 66.2553 174.07 66.5934 175.036 67.2696C176.002 67.9297 176.719 68.8635 177.185 70.071C177.668 71.2623 177.918 72.6469 177.934 74.2247H163.927C164.169 71.7131 164.926 69.757 166.197 68.3563ZM142.265 89.9219L132.219 63.454H136.517L142.337 79.4652C142.74 80.5599 143.15 81.7674 143.569 83.0876C143.988 84.4078 144.277 85.4704 144.438 86.2753H144.607C144.801 85.4704 145.123 84.4078 145.573 83.0876C146.024 81.7513 146.435 80.5438 146.805 79.4652L152.625 63.454H156.924L146.853 89.9219H142.265ZM125.771 65.2893C124.161 63.7438 121.786 62.971 118.646 62.971C117.455 62.971 116.32 63.14 115.241 63.4781C114.163 63.8001 113.189 64.2831 112.319 64.9271C111.45 65.555 110.733 66.3358 110.17 67.2696H109.953L109.349 63.454H106.113V89.9219H110.122V76.0601C110.122 72.9045 110.717 70.4976 111.909 68.8393C113.1 67.1811 115.161 66.3519 118.091 66.3519C120.168 66.3519 121.705 66.8993 122.704 67.9941C123.718 69.0889 124.225 70.7391 124.225 72.9448V89.9219H128.186V72.6791C128.186 69.2821 127.381 66.8188 125.771 65.2893ZM99.1827 76.6397C99.1827 78.8131 98.9009 80.7531 98.3375 82.4597C97.774 84.1663 96.9609 85.6072 95.8983 86.7825C94.8358 87.9578 93.5478 88.8594 92.0344 89.4872C90.5371 90.099 88.8386 90.4049 86.9388 90.4049C85.1679 90.4049 83.5418 90.099 82.0606 89.4872C80.5955 88.8594 79.3237 87.9578 78.245 86.7825C77.1824 85.6072 76.3533 84.1663 75.7576 82.4597C75.178 80.7531 74.8882 78.8131 74.8882 76.6397C74.8882 73.7417 75.3792 71.2784 76.3613 69.2499C77.3434 67.2052 78.7441 65.6516 80.5633 64.589C82.3987 63.5103 84.5802 62.971 87.1079 62.971C89.5229 62.971 91.6319 63.5103 93.4351 64.589C95.2544 65.6677 96.6631 67.2294 97.6613 69.274C98.6756 71.3026 99.1827 73.7578 99.1827 76.6397ZM79.0419 76.6397C79.0419 78.7648 79.3237 80.6082 79.8872 82.1699C80.4506 83.7316 81.32 84.9391 82.4953 85.7924C83.6706 86.6456 85.184 87.0723 87.0354 87.0723C88.8708 87.0723 90.3761 86.6456 91.5514 85.7924C92.7428 84.9391 93.6202 83.7316 94.1837 82.1699C94.7472 80.6082 95.029 78.7648 95.029 76.6397C95.029 74.5306 94.7472 72.7113 94.1837 71.1818C93.6202 69.6363 92.7508 68.4449 91.5756 67.6077C90.4003 66.7705 88.8789 66.3519 87.0113 66.3519C84.2582 66.3519 82.2377 67.2616 80.9497 69.0808C79.6779 70.9001 79.0419 73.4197 79.0419 76.6397Z" fill="white"/>
<path fill-rule="evenodd" clip-rule="evenodd" d="M16.2493 9.91767C17.2765 9.35735 18.4439 9.07719 19.7513 9.07719C21.4696 9.07719 23.0945 9.31999 24.6261 9.8056C26.1576 10.2912 27.6705 10.8889 29.1647 11.5986L32.5546 2.88565C30.4627 1.87707 28.3148 1.14866 26.1109 0.7004C23.9257 0.233467 21.8431 0 19.8633 0C16.6695 0 13.8306 0.522965 11.3465 1.5689C8.88107 2.59615 6.80789 4.06232 5.12693 5.96741C3.44597 7.85382 2.16657 10.0858 1.28874 12.6632C0.429579 15.2407 0 18.0797 0 21.1801C0 25.3265 0.663046 28.9686 1.98914 32.1063C3.3339 35.2441 5.41643 37.7002 8.23671 39.4746C11.0757 41.2302 14.7177 42.1081 19.1629 42.1081C21.2922 42.1081 23.3 41.9306 25.1864 41.5758C27.0915 41.2209 28.9499 40.6419 30.7616 39.8388V30.4814C29.0433 31.1912 27.3343 31.7982 25.6346 32.3025C23.9537 32.8067 22.198 33.0589 20.3676 33.0589C18.3505 33.0589 16.6695 32.6106 15.3248 31.7141C13.9987 30.8176 13.0088 29.4915 12.3551 27.7358C11.7014 25.9802 11.3745 23.8136 11.3745 21.2361C11.3745 19.331 11.5613 17.6314 11.9348 16.1372C12.327 14.6244 12.8874 13.345 13.6158 12.299C14.3442 11.2531 15.222 10.4593 16.2493 9.91767ZM117.359 33.8714L119.376 41.5477H131.479L117.947 0.420238H103.182L89.8188 41.5477H101.978L104.051 33.8714H117.359ZM113.296 18.0703L115.061 24.7942H106.348L108.113 18.0703C108.356 17.1738 108.636 16.0532 108.954 14.7084C109.29 13.3636 109.607 12.0095 109.906 10.6461C110.224 9.26396 110.467 8.10596 110.635 7.1721C110.822 8.10596 111.083 9.30131 111.419 10.7581C111.774 12.1963 112.129 13.5971 112.484 14.9605C112.839 16.3053 113.109 17.3419 113.296 18.0703ZM250.884 41.5477L248.866 33.8714H235.559L233.486 41.5477H221.327L234.69 0.420238H249.455L262.986 41.5477H250.884ZM246.569 24.7942L244.804 18.0703C244.617 17.3419 244.346 16.3053 243.992 14.9605C243.637 13.5971 243.282 12.1963 242.927 10.7581C242.591 9.30131 242.329 8.10596 242.143 7.1721C241.974 8.10596 241.732 9.26396 241.414 10.6461C241.115 12.0095 240.798 13.3636 240.462 14.7084C240.144 16.0532 239.864 17.1738 239.621 18.0703L237.856 24.7942H246.569ZM285.287 41.5477L276.91 12.0469H276.658C276.733 12.8127 276.808 13.8492 276.882 15.1567C276.976 16.4641 277.06 17.8742 277.134 19.3871C277.209 20.8999 277.247 22.3568 277.247 23.7576V41.5477H267.441V0.588337H282.177L290.722 29.669H290.946L299.323 0.588337H314.088V41.5477H303.918V23.5895C303.918 22.3007 303.936 20.9186 303.974 19.4431C304.03 17.9489 304.086 16.5481 304.142 15.2407C304.217 13.9146 304.282 12.8687 304.338 12.1029H304.086L295.821 41.5477H285.287ZM205.749 41.5477H216.872V0.588337H205.749V15.773H192.89V0.588337H181.768V41.5477H192.89V24.8502H205.749V41.5477ZM146.832 41.5477H135.934V0.588337H160.139V9.46941H146.832V17.2859H159.103V26.167H146.832V41.5477ZM56.6201 41.5477L48.2433 12.0469H47.9912C48.0659 12.8127 48.1406 13.8492 48.2153 15.1567C48.3087 16.4641 48.3928 17.8742 48.4675 19.3871C48.5422 20.8999 48.5795 22.3568 48.5795 23.7576V41.5477H38.7739V0.588337H53.5103L62.0552 29.669H62.2794L70.6561 0.588337H85.4206V41.5477H75.2508V23.5895C75.2508 22.3007 75.2694 20.9186 75.3068 19.4431C75.3628 17.9489 75.4189 16.5481 75.4749 15.2407C75.5496 13.9146 75.615 12.8687 75.671 12.1029H75.4189L67.1541 41.5477H56.6201Z" fill="#FFBE1A"/>
</svg>
