<svg width="144" height="42" viewBox="0 0 144 42" fill="none" xmlns="http://www.w3.org/2000/svg">
<path fill-rule="evenodd" clip-rule="evenodd" d="M5.33111 26.9048C6.04635 26.5951 6.85007 26.4402 7.74227 26.4402C8.45751 26.4402 9.12113 26.5287 9.73314 26.7057C10.3525 26.8753 10.9203 27.0781 11.4364 27.314L12.1885 25.7213C11.5765 25.419 10.8908 25.1867 10.1313 25.0245C9.37184 24.8623 8.58286 24.7812 7.76439 24.7812C6.51826 24.7812 5.41222 24.984 4.44628 25.3895C3.48771 25.7877 2.67661 26.3555 2.01299 27.0928C1.35674 27.8302 0.855337 28.7076 0.508778 29.7252C0.169593 30.7354 0 31.8525 0 33.0765C0 34.7724 0.272823 36.2434 0.818469 37.4896C1.37149 38.7357 2.19733 39.7017 3.296 40.3874C4.40204 41.0658 5.77721 41.405 7.42152 41.405C8.31373 41.405 9.08427 41.3497 9.73314 41.239C10.382 41.1358 11.0014 40.9736 11.5913 40.7524V39.1155C10.9867 39.2998 10.3636 39.4546 9.72208 39.58C9.08795 39.698 8.40958 39.757 7.68697 39.757C6.41871 39.757 5.3606 39.4841 4.51264 38.9385C3.67205 38.3928 3.03792 37.6223 2.61025 36.6269C2.18996 35.6241 1.97981 34.4443 1.97981 33.0875C1.97981 32.0626 2.11253 31.1409 2.37798 30.3224C2.64343 29.504 3.02317 28.8072 3.5172 28.232C4.01861 27.6495 4.62324 27.2071 5.33111 26.9048ZM80.4979 39.8234C80.1808 39.875 79.8711 39.9008 79.5688 39.9008C78.9863 39.9008 78.5181 39.7128 78.1641 39.3367C77.8176 38.9606 77.6443 38.3929 77.6443 37.6334V30.4994H81.1947V29.0616H77.6443V26.2523H76.5382L75.8083 28.8846L74.0718 29.6036V30.4994H75.7972V37.6887C75.7972 38.6399 75.952 39.3846 76.2617 39.9229C76.5788 40.4612 76.9991 40.8446 77.5226 41.0732C78.0461 41.2944 78.6287 41.405 79.2702 41.405C79.6315 41.405 80.0001 41.3718 80.3762 41.3054C80.7596 41.2391 81.0583 41.158 81.2721 41.0621V39.6353C81.073 39.7091 80.8149 39.7717 80.4979 39.8234ZM88.3949 28.8403C89.4272 28.8403 90.312 29.0689 91.0494 29.5261C91.7868 29.9832 92.3508 30.6247 92.7416 31.4506C93.1324 32.2691 93.3278 33.2276 93.3278 34.3263V35.4655H84.9551C84.9772 36.8886 85.3312 37.9725 86.0169 38.7173C86.7027 39.462 87.6686 39.8344 88.9147 39.8344C89.6816 39.8344 90.36 39.7643 90.9499 39.6242C91.5397 39.4841 92.1517 39.2777 92.7859 39.0048V40.6196C92.1739 40.8925 91.5655 41.0916 90.9609 41.2169C90.3637 41.3423 89.6558 41.4049 88.8373 41.4049C87.6723 41.4049 86.6547 41.169 85.7847 40.6971C84.9219 40.2178 84.2509 39.5173 83.7717 38.5956C83.2924 37.6739 83.0527 36.5457 83.0527 35.2111C83.0527 33.906 83.2703 32.7778 83.7053 31.8266C84.1477 30.8681 84.7671 30.1307 85.5634 29.6146C86.3672 29.0984 87.311 28.8403 88.3949 28.8403ZM88.3728 30.3445C87.3921 30.3445 86.6105 30.6653 86.028 31.3068C85.4455 31.9483 85.0989 32.8442 84.9883 33.9945H91.4033C91.396 33.2719 91.2817 32.6377 91.0605 32.0921C90.8466 31.5391 90.5185 31.1114 90.0761 30.8091C89.6337 30.4994 89.0659 30.3445 88.3728 30.3445ZM101.954 28.8403C102.198 28.8403 102.452 28.8551 102.718 28.8846C102.983 28.9067 103.219 28.9399 103.425 28.9841L103.193 30.6874C102.994 30.6358 102.773 30.5952 102.53 30.5658C102.286 30.5363 102.058 30.5215 101.844 30.5215C101.357 30.5215 100.896 30.6211 100.461 30.8201C100.034 31.0119 99.6575 31.2921 99.3331 31.6607C99.0086 32.022 98.7542 32.4608 98.5699 32.9769C98.3855 33.4857 98.2934 34.0535 98.2934 34.6802V41.1837H96.4463V29.0615H97.9726L98.1717 31.2957H98.2491C98.4998 30.8459 98.8022 30.4367 99.1561 30.068C99.51 29.692 99.9193 29.3934 100.384 29.1721C100.856 28.9509 101.379 28.8403 101.954 28.8403ZM71.8923 28.8403C72.1357 28.8403 72.3901 28.8551 72.6555 28.8846C72.921 28.9067 73.1569 28.9399 73.3634 28.9841L73.1311 30.6874C72.932 30.6358 72.7108 30.5952 72.4675 30.5658C72.2242 30.5363 71.9956 30.5215 71.7817 30.5215C71.2951 30.5215 70.8342 30.6211 70.3992 30.8201C69.9715 31.0119 69.5955 31.2921 69.271 31.6607C68.9466 32.022 68.6922 32.4608 68.5079 32.9769C68.3235 33.4857 68.2314 34.0535 68.2314 34.6802V41.1837H66.3843V29.0615H67.9106L68.1097 31.2957H68.1871C68.4378 30.8459 68.7401 30.4367 69.0941 30.068C69.448 29.692 69.8572 29.3934 70.3218 29.1721C70.7937 28.9509 71.3172 28.8403 71.8923 28.8403ZM60.9869 29.5261C60.2495 29.0689 59.3647 28.8403 58.3324 28.8403C57.2485 28.8403 56.3047 29.0984 55.5009 29.6146C54.7046 30.1307 54.0852 30.8681 53.6428 31.8266C53.2078 32.7778 52.9902 33.906 52.9902 35.2111C52.9902 36.5457 53.2299 37.6739 53.7092 38.5956C54.1884 39.5173 54.8594 40.2178 55.7221 40.6971C56.5922 41.169 57.6098 41.4049 58.7748 41.4049C59.5933 41.4049 60.3012 41.3423 60.8984 41.2169C61.503 41.0916 62.1114 40.8925 62.7234 40.6196V39.0048C62.0892 39.2777 61.4772 39.4841 60.8874 39.6242C60.2975 39.7643 59.6191 39.8344 58.8522 39.8344C57.6061 39.8344 56.6402 39.462 55.9544 38.7173C55.2687 37.9725 54.9147 36.8886 54.8926 35.4655H63.2653V34.3263C63.2653 33.2276 63.0699 32.2691 62.6791 31.4506C62.2883 30.6247 61.7243 29.9832 60.9869 29.5261ZM55.9655 31.3068C56.548 30.6653 57.3296 30.3445 58.3103 30.3445C59.0034 30.3445 59.5712 30.4994 60.0136 30.8091C60.456 31.1114 60.7841 31.5391 60.998 32.0921C61.2192 32.6377 61.3335 33.2719 61.3408 33.9945H54.9258C55.0364 32.8442 55.383 31.9483 55.9655 31.3068ZM45.0044 41.1838L40.4033 29.0616H42.3721L45.0376 36.3946C45.222 36.896 45.41 37.449 45.6017 38.0537C45.7934 38.6583 45.9261 39.145 45.9999 39.5137H46.0773C46.1658 39.145 46.3133 38.6583 46.5197 38.0537C46.7262 37.4417 46.9142 36.8887 47.0838 36.3946L49.7494 29.0616H51.7181L47.1059 41.1838H45.0044ZM37.4509 29.9021C36.7136 29.1943 35.6259 28.8403 34.1881 28.8403C33.6425 28.8403 33.1226 28.9178 32.6286 29.0726C32.1346 29.2201 31.6884 29.4413 31.2903 29.7362C30.8921 30.0238 30.564 30.3814 30.3059 30.8091H30.2064L29.9298 29.0615H28.4478V41.1837H30.2838V34.8351C30.2838 33.3898 30.5566 32.2875 31.1022 31.528C31.6479 30.7685 32.5917 30.3888 33.9337 30.3888C34.8849 30.3888 35.5891 30.6395 36.0462 31.1409C36.5108 31.6423 36.743 32.3981 36.743 33.4083V41.1837H38.5569V33.2866C38.5569 31.7308 38.1883 30.6026 37.4509 29.9021ZM25.2737 35.1005C25.2737 36.0959 25.1447 36.9845 24.8866 37.7661C24.6285 38.5477 24.2562 39.2076 23.7695 39.7459C23.2829 40.2841 22.693 40.6971 21.9998 40.9846C21.3141 41.2648 20.5362 41.4049 19.6661 41.4049C18.855 41.4049 18.1103 41.2648 17.4319 40.9846C16.7609 40.6971 16.1784 40.2841 15.6844 39.7459C15.1977 39.2076 14.818 38.5477 14.5451 37.7661C14.2797 36.9845 14.147 36.0959 14.147 35.1005C14.147 33.7733 14.3719 32.6451 14.8217 31.716C15.2714 30.7796 15.9129 30.068 16.7462 29.5814C17.5868 29.0873 18.5859 28.8403 19.7435 28.8403C20.8496 28.8403 21.8155 29.0873 22.6414 29.5814C23.4746 30.0754 24.1198 30.7906 24.5769 31.7271C25.0415 32.6562 25.2737 33.7806 25.2737 35.1005ZM16.0494 35.1005C16.0494 36.0738 16.1784 36.9181 16.4365 37.6333C16.6945 38.3486 17.0927 38.9016 17.631 39.2924C18.1693 39.6832 18.8624 39.8786 19.7104 39.8786C20.5509 39.8786 21.2404 39.6832 21.7786 39.2924C22.3243 38.9016 22.7261 38.3486 22.9842 37.6333C23.2423 36.9181 23.3713 36.0738 23.3713 35.1005C23.3713 34.1346 23.2423 33.3014 22.9842 32.6009C22.7261 31.893 22.328 31.3474 21.7897 30.9639C21.2514 30.5805 20.5546 30.3888 19.6993 30.3888C18.4384 30.3888 17.513 30.8054 16.9231 31.6386C16.3406 32.4718 16.0494 33.6258 16.0494 35.1005Z" fill="white"/>
<path fill-rule="evenodd" clip-rule="evenodd" d="M7.44208 4.54224C7.91256 4.28561 8.44719 4.1573 9.04598 4.1573C9.83296 4.1573 10.5772 4.2685 11.2786 4.49091C11.98 4.71332 12.6729 4.98705 13.3573 5.31211L14.9098 1.32161C13.9518 0.859689 12.968 0.526078 11.9587 0.320779C10.9578 0.106926 10.004 0 9.0973 0C7.63455 0 6.33432 0.239515 5.19663 0.718546C4.06748 1.18902 3.11798 1.86052 2.34811 2.73304C1.57823 3.59701 0.992278 4.61922 0.590234 5.79969C0.196745 6.98016 0 8.28039 0 9.70037C0 11.5994 0.303671 13.2674 0.911014 14.7045C1.52691 16.1416 2.48069 17.2665 3.77237 18.0791C5.07259 18.8832 6.74064 19.2853 8.77652 19.2853C9.75169 19.2853 10.6713 19.204 11.5352 19.0415C12.4077 18.8789 13.2589 18.6138 14.0886 18.2459V13.9603C13.3017 14.2854 12.519 14.5634 11.7405 14.7943C10.9707 15.0253 10.1666 15.1408 9.32827 15.1408C8.40442 15.1408 7.63455 14.9355 7.01865 14.5249C6.41131 14.1143 5.95794 13.507 5.65855 12.7029C5.35915 11.8988 5.20946 10.9065 5.20946 9.72603C5.20946 8.85351 5.295 8.07509 5.46608 7.39076C5.64572 6.69787 5.90234 6.11192 6.23595 5.63289C6.56956 5.15386 6.97161 4.79031 7.44208 4.54224ZM53.7493 15.5129L54.6731 19.0286H60.2162L54.0187 0.192444H47.2567L41.1362 19.0286H46.705L47.6545 15.5129H53.7493ZM51.8888 8.27609L52.6971 11.3556H48.7066L49.515 8.27609C49.6262 7.86549 49.7545 7.35224 49.8999 6.73634C50.0539 6.12045 50.1993 5.50027 50.3362 4.87582C50.4816 4.24282 50.5928 3.71246 50.6698 3.28476C50.7553 3.71246 50.8751 4.25993 51.0291 4.92715C51.1916 5.58582 51.3541 6.22737 51.5167 6.85183C51.6792 7.46772 51.8032 7.94248 51.8888 8.27609ZM114.904 19.0286L113.98 15.5129H107.885L106.935 19.0286H101.367L107.487 0.192444H114.249L120.447 19.0286H114.904ZM112.928 11.3556L112.119 8.27609C112.034 7.94248 111.91 7.46772 111.747 6.85183C111.585 6.22737 111.422 5.58582 111.26 4.92715C111.106 4.25993 110.986 3.71246 110.9 3.28476C110.823 3.71246 110.712 4.24282 110.567 4.87582C110.43 5.50027 110.284 6.12045 110.13 6.73634C109.985 7.35224 109.857 7.86549 109.745 8.27609L108.937 11.3556H112.928ZM130.66 19.0287L126.823 5.51742H126.708C126.742 5.86814 126.776 6.34289 126.81 6.94168C126.853 7.54047 126.892 8.18631 126.926 8.87919C126.96 9.57207 126.977 10.2393 126.977 10.8809V19.0287H122.486V0.26947H129.236L133.149 13.5882H133.252L137.088 0.26947H143.85V19.0287H139.193V10.8039C139.193 10.2136 139.201 9.58063 139.218 8.90485C139.244 8.22052 139.27 7.57896 139.295 6.98018C139.329 6.37283 139.359 5.8938 139.385 5.54308H139.27L135.484 19.0287H130.66ZM94.232 19.0287H99.326V0.26947H94.232V7.22397H88.3425V0.26947H83.2485V19.0287H88.3425V11.3813H94.232V19.0287ZM67.2482 19.0287H62.2568V0.26947H73.343V4.33695H67.2482V7.91685H72.8682V11.9843H67.2482V19.0287ZM25.9318 19.0287L22.0952 5.51742H21.9798C22.014 5.86814 22.0482 6.34289 22.0824 6.94168C22.1252 7.54047 22.1637 8.18631 22.1979 8.87919C22.2321 9.57207 22.2492 10.2393 22.2492 10.8809V19.0287H17.7583V0.26947H24.5075L28.421 13.5882H28.5237L32.3602 0.26947H39.1222V19.0287H34.4645V10.8039C34.4645 10.2136 34.473 9.58063 34.4902 8.90485C34.5158 8.22052 34.5415 7.57896 34.5671 6.98018C34.6014 6.37283 34.6313 5.8938 34.657 5.54308H34.5415L30.7563 19.0287H25.9318Z" fill="white"/>
</svg>
