<svg width="240" height="99" viewBox="0 0 240 99" fill="none" xmlns="http://www.w3.org/2000/svg">
<path id="ham" fill-rule="evenodd" clip-rule="evenodd" d="M2.25007 71.7195C0.750023 74.3609 0 77.3447 0 80.6709C0 83.9971 0.750023 86.9809 2.25007 89.6223C3.75011 92.2636 5.78822 94.3344 8.36438 95.8344C10.9732 97.3018 13.8591 98.0356 17.0223 98.0356C20.7398 98.0356 23.9844 97.1551 26.7562 95.3942C29.5281 93.6006 31.5499 91.0734 32.8216 87.8124H27.49C26.5443 89.8668 25.1747 91.4484 23.3811 92.5571C21.6202 93.6332 19.5006 94.1713 17.0223 94.1713C14.6417 94.1713 12.5058 93.6169 10.6145 92.5082C8.72309 91.3995 7.23935 89.8342 6.16323 87.8124C5.08711 85.758 4.54905 83.3775 4.54905 80.6709C4.54905 77.9317 5.08711 75.5512 6.16323 73.5294C7.23935 71.475 8.72309 69.8934 10.6145 68.7847C12.5058 67.6759 14.6417 67.1216 17.0223 67.1216C19.5006 67.1216 21.6202 67.6759 23.3811 68.7847C25.1747 69.8934 26.5443 71.475 27.49 73.5294H32.8216C31.5499 70.2358 29.5281 67.6922 26.7562 65.8987C23.9844 64.1052 20.7398 63.2084 17.0223 63.2084C13.8591 63.2084 10.9732 63.9584 8.36438 65.4585C5.78822 66.9585 3.75011 69.0455 2.25007 71.7195ZM183.453 90.4049V74.6055H190.448V70.9369H183.453V64.1867H179.002V70.9369H175.529V74.6055H179.002V90.4049C179.002 93.0136 179.622 94.8887 180.861 96.03C182.1 97.1714 183.959 97.742 186.437 97.742H190.448V93.9756H187.171C185.801 93.9756 184.839 93.7147 184.285 93.193C183.731 92.6386 183.453 91.7093 183.453 90.4049ZM230.624 75.2903C231.407 73.7576 232.515 72.5674 233.95 71.7195C235.418 70.8717 237.195 70.4477 239.282 70.4477V75.0457H238.108C233.119 75.0457 230.624 77.7523 230.624 83.1655V97.7421H226.173V70.9369H230.624V75.2903ZM220.298 83.3123C220.298 84.1601 220.249 85.0569 220.151 86.0026H198.727C198.89 88.6439 199.787 90.7147 201.417 92.2147C203.08 93.6821 205.086 94.4159 207.434 94.4159C209.358 94.4159 210.955 93.9756 212.227 93.0952C213.532 92.1821 214.445 90.9755 214.966 89.4755H219.76C219.043 92.0517 217.608 94.155 215.456 95.7855C213.303 97.3833 210.629 98.1823 207.434 98.1823C204.89 98.1823 202.607 97.6116 200.586 96.4703C198.596 95.3289 197.031 93.7148 195.89 91.6277C194.748 89.5081 194.178 87.0624 194.178 84.2906C194.178 81.5187 194.732 79.0893 195.841 77.0023C196.95 74.9153 198.499 73.3174 200.488 72.2087C202.51 71.0673 204.825 70.4967 207.434 70.4967C209.977 70.4967 212.227 71.051 214.184 72.1597C216.14 73.2685 217.64 74.8011 218.684 76.7577C219.76 78.6817 220.298 80.8665 220.298 83.3123ZM215.7 82.3829C215.7 80.6872 215.325 79.236 214.575 78.0295C213.825 76.7903 212.798 75.861 211.493 75.2414C210.222 74.5892 208.803 74.2631 207.238 74.2631C204.988 74.2631 203.064 74.9805 201.466 76.4153C199.901 77.8501 199.004 79.8393 198.776 82.3829H215.7ZM164.226 75.2903C165.008 73.7576 166.117 72.5674 167.552 71.7195C169.019 70.8717 170.796 70.4477 172.884 70.4477V75.0457H171.71C166.72 75.0457 164.226 77.7523 164.226 83.1655V97.7421H159.774V70.9369H164.226V75.2903ZM153.753 86.0026C153.851 85.0569 153.9 84.1601 153.9 83.3123C153.9 80.8665 153.362 78.6817 152.285 76.7577C151.242 74.8011 149.742 73.2685 147.785 72.1597C145.829 71.051 143.579 70.4967 141.035 70.4967C138.426 70.4967 136.111 71.0673 134.089 72.2087C132.1 73.3174 130.551 74.9153 129.442 77.0023C128.334 79.0893 127.779 81.5187 127.779 84.2906C127.779 87.0624 128.35 89.5081 129.491 91.6277C130.633 93.7148 132.198 95.3289 134.187 96.4703C136.209 97.6116 138.492 98.1823 141.035 98.1823C144.231 98.1823 146.905 97.3833 149.057 95.7855C151.209 94.155 152.644 92.0517 153.362 89.4755H148.568C148.046 90.9755 147.133 92.1821 145.829 93.0952C144.557 93.9756 142.959 94.4159 141.035 94.4159C138.687 94.4159 136.682 93.6821 135.019 92.2147C133.388 90.7147 132.491 88.6439 132.328 86.0026H153.753ZM148.177 78.0295C148.927 79.236 149.302 80.6872 149.302 82.3829H132.377C132.606 79.8393 133.502 77.8501 135.068 76.4153C136.665 74.9805 138.589 74.2631 140.839 74.2631C142.405 74.2631 143.823 74.5892 145.095 75.2414C146.399 75.861 147.427 76.7903 148.177 78.0295ZM112.003 93.6332L120.318 70.9369H125.063L114.546 97.742H109.361L98.8447 70.9369H103.638L112.003 93.6332ZM91.7216 73.4315C89.6998 71.4423 87.0585 70.4477 83.7975 70.4477C81.9713 70.4477 80.2919 70.8228 78.7593 71.5728C77.2592 72.3228 76.069 73.3826 75.1885 74.7522V70.9369H70.7373V97.7421H75.1885V82.9209C75.1885 80.1165 75.8733 77.9806 77.2429 76.5131C78.6451 75.0457 80.5202 74.312 82.8681 74.312C85.1834 74.312 87.0095 75.0294 88.3465 76.4642C89.6835 77.8664 90.352 79.9046 90.352 82.5785V97.7421H94.7543V81.9427C94.7543 78.2252 93.7434 75.3881 91.7216 73.4315ZM51.1378 98.1823C48.6269 98.1823 46.3442 97.6116 44.2898 96.4703C42.268 95.3289 40.6701 93.7148 39.4962 91.6277C38.3549 89.5081 37.7842 87.0624 37.7842 84.2906C37.7842 81.5513 38.3712 79.1382 39.5451 77.0512C40.7517 74.9316 42.3821 73.3174 44.4366 72.2087C46.491 71.0673 48.7899 70.4967 51.3335 70.4967C53.8771 70.4967 56.176 71.0673 58.2305 72.2087C60.2849 73.3174 61.899 74.9153 63.073 77.0023C64.2795 79.0893 64.8828 81.5187 64.8828 84.2906C64.8828 87.0624 64.2632 89.5081 63.0241 91.6277C61.8175 93.7148 60.1707 95.3289 58.0837 96.4703C55.9967 97.6116 53.6814 98.1823 51.1378 98.1823ZM51.1378 94.2691C52.7357 94.2691 54.2358 93.8941 55.638 93.1441C57.0402 92.3941 58.1652 91.269 59.0131 89.769C59.8935 88.2689 60.3338 86.4428 60.3338 84.2906C60.3338 82.1383 59.9099 80.3122 59.062 78.8121C58.2141 77.3121 57.1054 76.2033 55.7358 75.4859C54.3662 74.7359 52.8825 74.3609 51.2846 74.3609C49.6541 74.3609 48.1541 74.7359 46.7845 75.4859C45.4475 76.2033 44.3713 77.3121 43.5561 78.8121C42.7409 80.3122 42.3332 82.1383 42.3332 84.2906C42.3332 86.4754 42.7245 88.3179 43.5072 89.8179C44.3224 91.3179 45.3985 92.443 46.7355 93.193C48.0725 93.9104 49.54 94.2691 51.1378 94.2691Z" fill="white" fill-opacity="0.87"/>
<path id="converter" fill-rule="evenodd" clip-rule="evenodd" d="M124.01 54.1548L121.354 44.0469H103.831L101.101 54.1548H85.0908L102.687 0H122.129L139.947 54.1548H124.01ZM118.329 32.0945L116.005 23.2408C115.759 22.2817 115.402 20.9167 114.935 19.146C114.468 17.3507 114 15.5062 113.533 13.6125C113.09 11.6942 112.746 10.1202 112.5 8.89054C112.279 10.1202 111.959 11.645 111.541 13.4649C111.148 15.2603 110.73 17.0433 110.287 18.814C109.869 20.5847 109.5 22.0603 109.18 23.2408L106.856 32.0945H118.329ZM169.31 54.1549L158.279 15.3095H157.947C158.046 16.3178 158.144 17.6828 158.243 19.4043C158.366 21.1259 158.476 22.9827 158.575 24.9747C158.673 26.9668 158.722 28.8851 158.722 30.7296V54.1549H145.811V0.221405H165.215L176.466 38.5134H176.761L187.792 0.221405H207.233V54.1549H193.842V30.5083C193.842 28.8113 193.866 26.9914 193.915 25.0485C193.989 23.081 194.063 21.2365 194.137 19.515C194.235 17.7688 194.321 16.3916 194.395 15.3833H194.063L183.18 54.1549H169.31ZM64.578 54.1549H79.2234V0.221405H64.578V20.2159H47.6454V0.221405H33V54.1549H47.6454V32.1683H64.578V54.1549Z" fill="#FFBE1A"/>
</svg>
