<svg width="100" height="42" viewBox="0 0 100 42" fill="none" xmlns="http://www.w3.org/2000/svg">
<path d="M96.1087 31.7282C96.4319 31.0953 96.8898 30.6037 97.4823 30.2536C98.0883 29.9035 98.8222 29.7284 99.6841 29.7284V31.6272H99.1993C97.1389 31.6272 96.1087 32.7449 96.1087 34.9804V41H94.2705V29.9304H96.1087V31.7282Z" fill="white" fill-opacity="0.97"/>
<path d="M91.8439 35.041C91.8439 35.3911 91.8237 35.7615 91.7833 36.152H82.9357C83.0031 37.2428 83.3734 38.0979 84.0467 38.7174C84.7335 39.3234 85.5617 39.6264 86.5313 39.6264C87.3259 39.6264 87.9857 39.4446 88.5109 39.081C89.0496 38.7039 89.4267 38.2057 89.6421 37.5862H91.6217C91.3255 38.6501 90.7329 39.5187 89.8441 40.192C88.9553 40.8519 87.8511 41.1818 86.5313 41.1818C85.4809 41.1818 84.5383 40.9461 83.7033 40.4748C82.8819 40.0035 82.2355 39.3369 81.7641 38.475C81.2928 37.5997 81.0571 36.5897 81.0571 35.445C81.0571 34.3003 81.2861 33.2971 81.7439 32.4352C82.2018 31.5733 82.8415 30.9135 83.6629 30.4556C84.4979 29.9843 85.454 29.7486 86.5313 29.7486C87.5817 29.7486 88.5109 29.9775 89.3189 30.4354C90.1269 30.8933 90.7464 31.5262 91.1773 32.3342C91.6217 33.1287 91.8439 34.031 91.8439 35.041ZM89.9451 34.6572C89.9451 33.9569 89.7903 33.3577 89.4805 32.8594C89.1708 32.3477 88.7466 31.9639 88.2079 31.708C87.6827 31.4387 87.0969 31.304 86.4505 31.304C85.5213 31.304 84.7268 31.6003 84.0669 32.1928C83.4205 32.7853 83.0502 33.6068 82.9559 34.6572H89.9451Z" fill="white" fill-opacity="0.97"/>
<path d="M76.6284 31.4454V37.97C76.6284 38.5086 76.7428 38.8924 76.9718 39.1214C77.2007 39.3368 77.598 39.4446 78.1636 39.4446H79.517V41H77.8606C76.8371 41 76.0695 40.7643 75.5578 40.293C75.046 39.8216 74.7902 39.0473 74.7902 37.97V31.4454H73.356V29.9304H74.7902V27.1428H76.6284V29.9304H79.517V31.4454H76.6284Z" fill="white" fill-opacity="0.97"/>
<path d="M68.6888 31.7282C69.012 31.0953 69.4699 30.6037 70.0624 30.2536C70.6684 29.9035 71.4023 29.7284 72.2642 29.7284V31.6272H71.7794C69.719 31.6272 68.6888 32.7449 68.6888 34.9804V41H66.8506V29.9304H68.6888V31.7282Z" fill="white" fill-opacity="0.97"/>
<path d="M64.424 35.041C64.424 35.3911 64.4038 35.7615 64.3634 36.152H55.5158C55.5831 37.2428 55.9535 38.0979 56.6268 38.7174C57.3136 39.3234 58.1418 39.6264 59.1114 39.6264C59.9059 39.6264 60.5658 39.4446 61.091 39.081C61.6297 38.7039 62.0067 38.2057 62.2222 37.5862H64.2018C63.9055 38.6501 63.313 39.5187 62.4242 40.192C61.5354 40.8519 60.4311 41.1818 59.1114 41.1818C58.061 41.1818 57.1183 40.9461 56.2834 40.4748C55.4619 40.0035 54.8155 39.3369 54.3442 38.475C53.8729 37.5997 53.6372 36.5897 53.6372 35.445C53.6372 34.3003 53.8661 33.2971 54.324 32.4352C54.7819 31.5733 55.4215 30.9135 56.243 30.4556C57.0779 29.9843 58.0341 29.7486 59.1114 29.7486C60.1618 29.7486 61.091 29.9775 61.899 30.4354C62.707 30.8933 63.3265 31.5262 63.7574 32.3342C64.2018 33.1287 64.424 34.031 64.424 35.041ZM62.5252 34.6572C62.5252 33.9569 62.3703 33.3577 62.0606 32.8594C61.7509 32.3477 61.3267 31.9639 60.788 31.708C60.2628 31.4387 59.677 31.304 59.0306 31.304C58.1014 31.304 57.3069 31.6003 56.647 32.1928C56.0006 32.7853 55.6303 33.6068 55.536 34.6572H62.5252Z" fill="white" fill-opacity="0.97"/>
<path d="M47.1218 39.3032L50.5558 29.9304H52.5152L48.1722 41H46.031L41.688 29.9304H43.6676L47.1218 39.3032Z" fill="white" fill-opacity="0.97"/>
<path d="M35.4735 29.7284C36.8201 29.7284 37.9109 30.1391 38.7459 30.9606C39.5808 31.7686 39.9983 32.9402 39.9983 34.4754V41H38.1803V34.738C38.1803 33.6337 37.9042 32.7921 37.3521 32.213C36.7999 31.6205 36.0458 31.3242 35.0897 31.3242C34.1201 31.3242 33.3457 31.6272 32.7667 32.2332C32.2011 32.8392 31.9183 33.7213 31.9183 34.8794V41H30.0801V29.9304H31.9183V31.506C32.2819 30.9404 32.7734 30.5027 33.3929 30.193C34.0258 29.8833 34.7193 29.7284 35.4735 29.7284Z" fill="white" fill-opacity="0.97"/>
<path d="M21.9868 41.1818C20.9498 41.1818 20.0072 40.9461 19.1588 40.4748C18.3238 40.0035 17.664 39.3369 17.1792 38.475C16.7078 37.5997 16.4722 36.5897 16.4722 35.445C16.4722 34.3138 16.7146 33.3173 17.1994 32.4554C17.6976 31.5801 18.371 30.9135 19.2194 30.4556C20.0678 29.9843 21.0172 29.7486 22.0676 29.7486C23.118 29.7486 24.0674 29.9843 24.9158 30.4556C25.7642 30.9135 26.4308 31.5733 26.9156 32.4352C27.4138 33.2971 27.663 34.3003 27.663 35.445C27.663 36.5897 27.4071 37.5997 26.8954 38.475C26.3971 39.3369 25.717 40.0035 24.8552 40.4748C23.9933 40.9461 23.0372 41.1818 21.9868 41.1818ZM21.9868 39.5658C22.6466 39.5658 23.2661 39.4109 23.8452 39.1012C24.4242 38.7915 24.8888 38.3269 25.239 37.7074C25.6026 37.0879 25.7844 36.3338 25.7844 35.445C25.7844 34.5562 25.6093 33.8021 25.2592 33.1826C24.909 32.5631 24.4512 32.1053 23.8856 31.809C23.32 31.4993 22.7072 31.3444 22.0474 31.3444C21.374 31.3444 20.7546 31.4993 20.189 31.809C19.6368 32.1053 19.1924 32.5631 18.8558 33.1826C18.5191 33.8021 18.3508 34.5562 18.3508 35.445C18.3508 36.3473 18.5124 37.1081 18.8356 37.7276C19.1722 38.3471 19.6166 38.8117 20.1688 39.1214C20.7209 39.4177 21.3269 39.5658 21.9868 39.5658Z" fill="white" fill-opacity="0.97"/>
<path d="M0.868652 33.9502C0.868652 32.5766 1.17839 31.3444 1.79785 30.2536C2.41732 29.1493 3.25899 28.2874 4.32285 27.668C5.40019 27.0485 6.59199 26.7388 7.89825 26.7388C9.43345 26.7388 10.7734 27.1091 11.9181 27.8498C13.0627 28.5904 13.8977 29.6408 14.4229 31.001H12.2211C11.8305 30.1526 11.2649 29.4994 10.5243 29.0416C9.79705 28.5837 8.92172 28.3548 7.89825 28.3548C6.91519 28.3548 6.03312 28.5837 5.25205 29.0416C4.47099 29.4994 3.85825 30.1526 3.41385 31.001C2.96945 31.8359 2.74725 32.819 2.74725 33.9502C2.74725 35.0679 2.96945 36.051 3.41385 36.8994C3.85825 37.7343 4.47099 38.3807 5.25205 38.8386C6.03312 39.2964 6.91519 39.5254 7.89825 39.5254C8.92172 39.5254 9.79705 39.3032 10.5243 38.8588C11.2649 38.4009 11.8305 37.7478 12.2211 36.8994H14.4229C13.8977 38.246 13.0627 39.2897 11.9181 40.0304C10.7734 40.7576 9.43345 41.1212 7.89825 41.1212C6.59199 41.1212 5.40019 40.8182 4.32285 40.2122C3.25899 39.5927 2.41732 38.7376 1.79785 37.6468C1.17839 36.556 0.868652 35.3238 0.868652 33.9502Z" fill="white" fill-opacity="0.97"/>
<path d="M58.6979 23L54.1429 6.95822H54.0058C54.0464 7.37462 54.087 7.93829 54.1276 8.64923C54.1784 9.36017 54.2241 10.127 54.2647 10.9496C54.3054 11.7723 54.3257 12.5645 54.3257 13.3262V23H48.9937V0.727356H57.0069L61.6534 16.5406H61.7753L66.3304 0.727356H74.3589V23H68.8288V13.2348C68.8288 12.534 68.839 11.7824 68.8593 10.9801C68.8897 10.1676 68.9202 9.40587 68.9507 8.69493C68.9913 7.97384 69.0269 7.40509 69.0573 6.98868H68.9202L64.4261 23H58.6979Z" fill="white" fill-opacity="0.97"/>
<path d="M39.9902 23L38.8934 18.8258H31.657L30.5297 23H23.918L31.1848 0.635925H39.2133L46.5715 23H39.9902ZM37.6441 13.8898L36.6844 10.2336C36.5828 9.83749 36.4355 9.27382 36.2426 8.54257C36.0496 7.80116 35.8566 7.03944 35.6637 6.25741C35.4809 5.46522 35.3387 4.81522 35.2371 4.30741C35.1457 4.81522 35.0137 5.44491 34.841 6.19647C34.6785 6.93788 34.5059 7.67421 34.323 8.40546C34.1504 9.13671 33.998 9.74608 33.866 10.2336L32.9062 13.8898H37.6441Z" fill="white" fill-opacity="0.97"/>
<path d="M21.4959 23H15.4479V13.9203H8.45527V23H2.40723V0.727356H8.45527V8.98439H15.4479V0.727356H21.4959V23Z" fill="white" fill-opacity="0.97"/>
</svg>
